<?xml version="1.0" encoding="utf-8"?>
<!-- Generator: Adobe Illustrator 19.0.0, SVG Export Plug-In . SVG Version: 6.00 Build 0)  -->
<svg version="1.1" id="Layer_1" xmlns="http://www.w3.org/2000/svg" xmlns:xlink="http://www.w3.org/1999/xlink" x="0px" y="0px"
	 viewBox="0 0 1229.9 888" style="enable-background:new 0 0 1229.9 888;" xml:space="preserve">
<style type="text/css">
	.st0{fill:#FFFFFF;stroke:#000000;stroke-miterlimit:10;}
	.st1{fill:none;stroke:#FF0000;stroke-width:0.25;stroke-miterlimit:10;}
</style>
<rect id="XMLID_1_" x="1340.4" y="236" transform="matrix(0.8746 0.4848 -0.4848 0.8746 332.1949 -699.0975)" class="st0" width="354.3" height="113.4"/>
<rect id="XMLID_42_" x="1311" y="503.3" transform="matrix(0.9783 0.2074 -0.2074 0.9783 148.5008 -296.4725)" class="st0" width="354.3" height="113.4"/>
<path id="XMLID_12_" class="st1" d="M115.1,624.2L76.3,616l73.5-317.9l98.8,47.9l21.9-39.3l-34.5-19.1L376.3,34.4H35.6v614.4
	l-0.2,0.8l71.2,15.1L115.1,624.2z M75.6,88.3c0-4.7,3.8-8.5,8.5-8.5s8.5,3.8,8.5,8.5s-3.8,8.5-8.5,8.5S75.6,93,75.6,88.3z
	 M273.4,88.3c0-4.7,3.8-8.5,8.5-8.5s8.5,3.8,8.5,8.5s-3.8,8.5-8.5,8.5S273.4,93,273.4,88.3z M75.6,421.1c0-4.7,3.8-8.5,8.5-8.5
	s8.5,3.8,8.5,8.5s-3.8,8.5-8.5,8.5S75.6,425.8,75.6,421.1z M95.9,178.8c0-31.3,25.4-56.7,56.7-56.7s56.7,25.4,56.7,56.7
	c0,31.3-25.4,56.7-56.7,56.7S95.9,210.1,95.9,178.8z"/>
<path id="XMLID_15_" class="st1" d="M287.2,247.3l38.8,8.2l-73.5,317.9l-98.8-47.9l-21.9,39.3l34.5,19.1L26,837.1h340.7V222.7
	l0.2-0.8l-71.2-15.1L287.2,247.3z M326.7,783.2c0,4.7-3.8,8.5-8.5,8.5s-8.5-3.8-8.5-8.5s3.8-8.5,8.5-8.5S326.7,778.5,326.7,783.2z
	 M128.9,783.2c0,4.7-3.8,8.5-8.5,8.5s-8.5-3.8-8.5-8.5s3.8-8.5,8.5-8.5S128.9,778.5,128.9,783.2z M326.7,450.3
	c0,4.7-3.8,8.5-8.5,8.5s-8.5-3.8-8.5-8.5s3.8-8.5,8.5-8.5S326.7,445.6,326.7,450.3z M306.4,692.7c0,31.3-25.4,56.7-56.7,56.7
	S193,724,193,692.7c0-31.3,25.4-56.7,56.7-56.7S306.4,661.4,306.4,692.7z"/>
</svg>
